Coordinates
version=1
nRows=17
nColumns=38
inDegrees=no

Units are S.I. units (second, meters, Newtons, ...)
If the header above contains a line with 'inDegrees', this indicates whether rotational values are in degrees (yes) or radians (no).

endheader
time	pelvis_tilt	pelvis_list	pelvis_rotation	pelvis_tx	pelvis_ty	pelvis_tz	hip_flexion_r	hip_adduction_r	hip_rotation_r	knee_angle_r	ankle_angle_r	subtalar_angle_r	mtp_angle_r	hip_flexion_l	hip_adduction_l	hip_rotation_l	knee_angle_l	ankle_angle_l	subtalar_angle_l	mtp_angle_l	lumbar_extension	lumbar_bending	lumbar_rotation	arm_flex_r	arm_add_r	arm_rot_r	elbow_flex_r	pro_sup_r	wrist_flex_r	wrist_dev_r	arm_flex_l	arm_add_l	arm_rot_l	elbow_flex_l	pro_sup_l	wrist_flex_l	wrist_dev_l
10	0.936402	1.36444	0.640129	0.777384	1.76888	0.964589	0.230457	0.195726	-0.031676	0.280876	0.0756652	0	0	0.0293753	-0.140733	-0.207894	0	0.0686541	0	0	0.0550422	0.198877	0.0735069	-0.142126	-0.255856	0.192825	0.719466	1.35989	0	0	-0.079203	-0.145071	0.398695	0.603148	0.96755	0	0
10.01	0.917586	1.37962	0.665454	0.77683	1.76966	0.964007	0.239841	0.179391	-0.0257683	0.318834	0.0979754	0	0	0.0229609	-0.12422	-0.202651	0	0.0685408	0	0	0.0537181	0.182044	0.0606675	-0.141716	-0.258276	0.214151	0.735456	1.30791	0	0	-0.0875521	-0.152699	0.392119	0.622038	0.959478	0	0
10.02	0.906691	1.38098	0.676517	0.776951	1.76943	0.963861	0.24354	0.176465	-0.0301378	0.324597	0.101659	0	0	0.0241518	-0.121752	-0.202012	0	0.0678595	0	0	0.0545746	0.179343	0.0614582	-0.145281	-0.259539	0.209586	0.752333	1.31313	0	0	-0.0896271	-0.155265	0.38483	0.636541	0.961037	0	0
10.03	0.905549	1.38149	0.677631	0.777073	1.76928	0.96381	0.244425	0.17595	-0.0309936	0.326433	0.102519	0	0	0.0241781	-0.121289	-0.201981	0	0.0678545	0	0	0.0544467	0.178902	0.062961	-0.149828	-0.260137	0.198987	0.771469	1.32215	0	0	-0.0914975	-0.157803	0.378268	0.65251	0.964551	0	0
10.04	0.909262	1.38226	0.674103	0.777183	1.76914	0.963826	0.243929	0.175909	-0.0313794	0.327341	0.102815	0	0	0.0232907	-0.12123	-0.202177	0	0.0679698	0	0	0.0533705	0.178911	0.0645917	-0.154982	-0.26025	0.185545	0.792531	1.33486	0	0	-0.0933944	-0.160714	0.371862	0.670447	0.970237	0	0
10.05	0.916165	1.38329	0.667625	0.777268	1.769	0.963886	0.24262	0.175993	-0.0317849	0.327886	0.10294	0	0	0.021749	-0.121352	-0.20201	0	0.0681231	0	0	0.0515821	0.179173	0.0660848	-0.16042	-0.260023	0.170811	0.815109	1.35	0	0	-0.0953116	-0.163626	0.36451	0.689864	0.978244	0	0
10.06	0.924615	1.38438	0.659376	0.77734	1.76886	0.963966	0.240912	0.176271	-0.0317445	0.328192	0.103014	0	0	0.0198775	-0.121589	-0.202262	0	0.0683174	0	0	0.0495325	0.179697	0.0676408	-0.165507	-0.260503	0.156545	0.839437	1.36945	0	0	-0.0976072	-0.166368	0.355553	0.711144	0.988505	0	0
10.07	0.934374	1.3855	0.649558	0.777417	1.76873	0.964054	0.238823	0.176725	-0.0313371	0.328269	0.103017	0	0	0.0177053	-0.121889	-0.20276	0	0.0685758	0	0	0.0473688	0.180544	0.0691903	-0.170734	-0.261081	0.143327	0.865377	1.39167	0	0	-0.100459	-0.168895	0.344878	0.735008	1.00019	0	0
10.08	0.947274	1.38697	0.636541	0.777466	1.76868	0.96419	0.235801	0.17724	-0.0307115	0.328063	0.102927	0	0	0.0146695	-0.1222	-0.202914	0	0.068661	0	0	0.0447722	0.181666	0.0704586	-0.176028	-0.261789	0.131352	0.893182	1.41458	0	0	-0.103949	-0.171408	0.333059	0.761573	1.01331	0	0
10.09	0.969313	1.39953	0.621923	0.777424	1.76961	0.964091	0.226479	0.168692	-0.0263204	0.336257	0.113475	0	0	0.00329068	-0.113773	-0.19732	0	0.0693462	0	0	0.0372168	0.171548	0.0632743	-0.182006	-0.259131	0.11994	0.924606	1.43901	0	0	-0.111385	-0.179715	0.320122	0.79834	1.02882	0	0
10.1	0.986976	1.40214	0.605479	0.777335	1.76882	0.964368	0.22342	0.168093	-0.0280988	0.337938	0.113897	0	0	-0.00038484	-0.113479	-0.195895	0	0.0691804	0	0	0.0327043	0.171794	0.0623643	-0.18485	-0.260477	0.11008	0.956272	1.4653	0	0	-0.114886	-0.183026	0.30632	0.831079	1.04825	0	0
10.11	0.977295	1.40226	0.615234	0.777653	1.76889	0.964303	0.226923	0.166817	-0.0316937	0.340882	0.114555	0	0	0.00167233	-0.112639	-0.195324	0	0.0685035	0	0	0.0346049	0.170568	0.064044	-0.190017	-0.25998	0.094836	0.988267	1.50574	0	0	-0.118763	-0.186206	0.292079	0.86441	1.07948	0	0
10.12	0.963274	1.40184	0.630088	0.777799	1.76877	0.964206	0.230522	0.165757	-0.0328398	0.342882	0.114873	0	0	0.00456413	-0.111815	-0.194479	0	0.0681001	0	0	0.037802	0.169267	0.0641012	-0.195879	-0.257454	0.0725249	1.02263	1.5708	0	0	-0.125467	-0.183969	0.254365	0.896496	1.21693	0	0
10.13	0.96042	1.40238	0.63459	0.777934	1.76877	0.964318	0.230195	0.165307	-0.0314465	0.341766	0.113984	0	0	0.00512182	-0.111285	-0.193139	0	0.0674813	0	0	0.0403304	0.168268	0.0646185	-0.201426	-0.257997	0.0647512	1.0576	1.5708	0	0	-0.127425	-0.193147	0.263837	0.936994	1.1497	0	0
10.14	0.94508	1.40177	0.650408	0.778126	1.76855	0.964214	0.234165	0.164313	-0.0320682	0.343771	0.114162	0	0	0.00831732	-0.110379	-0.192471	0	0.0670204	0	0	0.0439946	0.167102	0.0643304	-0.206401	-0.258405	0.0551127	1.09754	1.5708	0	0	-0.134187	-0.191484	0.228536	0.974843	1.28467	0	0
10.15	0.931736	1.40131	0.664792	0.778288	1.76825	0.964186	0.237323	0.163303	-0.0320988	0.344785	0.113823	0	0	0.0112739	-0.109413	-0.19161	0	0.0665538	0	0	0.0476821	0.166041	0.0647245	-0.210901	-0.259685	0.0473633	1.13682	1.5708	0	0	-0.137725	-0.195319	0.216333	1.0174	1.31421	0	0
10.16	0.922807	1.4017	0.67412	0.778448	1.76806	0.964274	0.238791	0.162334	-0.0308239	0.34491	0.113094	0	0	0.0128264	-0.108256	-0.191399	0	0.0657265	0	0	0.0505941	0.164893	0.0668277	-0.214812	-0.261218	0.0404564	1.17511	1.5708	0	0	-0.138376	-0.203715	0.222027	1.06327	1.24961	0	0
